<?xml version="1.0" standalone="no"?>
<!DOCTYPE svg PUBLIC "-//W3C//DTD SVG 20010904//EN"
 "http://www.w3.org/TR/2001/REC-SVG-20010904/DTD/svg10.dtd">
<svg version="1.0" xmlns="http://www.w3.org/2000/svg"
 width="2970.000000pt" height="3713.000000pt" viewBox="0 0 2970.000000 3713.000000"
 preserveAspectRatio="xMidYMid meet">

<g transform="translate(0.000000,3713.000000) scale(0.100000,-0.100000)"
fill="#000000" stroke="none">
<path d="M13666 22573 c8 -35 13 -43 24 -43 4 0 6 9 3 20 -5 17 -1 20 24 17
16 -2 34 -7 41 -11 7 -4 16 -5 21 -2 5 4 11 3 13 -2 4 -9 185 -74 211 -75 9
-1 17 -5 17 -9 0 -4 7 -4 17 -1 11 4 14 3 9 -5 -5 -8 2 -12 19 -12 15 0 24 -4
20 -10 -3 -5 -2 -10 4 -10 22 0 19 18 -6 29 -73 33 -391 141 -416 141 -4 0 -4
-12 -1 -27z"/>
<path d="M13691 22490 c6 -16 15 -30 21 -30 5 0 7 -4 3 -9 -6 -11 25 -81 36
-81 7 0 -22 85 -43 128 -17 32 -29 27 -17 -8z"/>
<path d="M14115 22431 c-5 -9 32 -27 48 -23 4 1 7 -2 7 -7 0 -5 14 -12 30 -16
18 -4 27 -11 24 -17 -4 -6 -2 -8 4 -4 5 3 12 1 14 -6 3 -8 6 -9 11 -1 4 6 -16
22 -51 39 -31 16 -58 32 -60 37 -5 10 -20 9 -27 -2z"/>
<path d="M15535 22389 c-33 -11 -66 -21 -73 -24 -7 -2 -16 -5 -20 -6 -19 -4
-122 -42 -170 -61 -33 -14 -49 -25 -43 -31 7 -7 19 -4 35 7 14 9 32 16 41 16
9 0 14 4 11 9 -3 5 4 9 17 9 12 0 40 7 62 17 22 10 51 19 64 21 13 2 27 7 30
11 3 4 13 9 21 9 8 1 27 5 42 9 l28 7 -30 -66 c-17 -37 -28 -71 -25 -76 4 -6
2 -10 -4 -10 -8 0 -25 -36 -23 -50 0 -3 -7 -13 -15 -22 -9 -10 -12 -18 -7 -18
5 0 4 -4 -2 -8 -6 -4 -21 -26 -32 -48 -12 -23 -29 -49 -38 -59 -12 -12 -14
-19 -5 -28 8 -8 11 -8 11 1 0 6 13 31 29 54 16 24 27 46 25 50 -3 5 -1 8 3 8
13 0 45 59 38 70 -3 6 -2 10 3 10 10 0 60 106 67 139 2 11 9 29 15 41 19 35 8
39 -55 19z"/>
<path d="M13904 22371 c17 -18 34 -27 44 -24 9 4 13 2 9 -5 -4 -6 7 -21 25
-34 18 -12 42 -32 53 -44 11 -11 48 -45 83 -74 34 -29 60 -55 57 -59 -4 -3
-49 -4 -101 -3 -66 2 -94 0 -94 -9 0 -8 32 -10 114 -8 63 2 112 1 110 -3 -2
-3 5 -10 17 -13 12 -4 47 -32 78 -63 71 -69 91 -87 99 -87 11 0 66 -59 68 -72
1 -6 -4 -9 -12 -6 -8 3 -14 0 -14 -6 0 -6 15 -11 33 -11 23 0 41 -8 57 -25 13
-14 27 -25 32 -25 4 0 24 -18 44 -40 19 -21 44 -42 55 -45 10 -4 19 -12 19
-20 0 -7 7 -15 15 -19 8 -3 15 -10 15 -16 0 -20 -219 7 -286 35 -18 7 -36 10
-39 5 -10 -16 212 -69 294 -70 l34 0 -54 -47 c-131 -118 -284 -281 -284 -306
-1 -6 -6 -11 -13 -10 -7 2 -12 -6 -12 -18 0 -11 -5 -17 -10 -14 -6 4 -15 -7
-21 -24 -6 -17 -14 -29 -19 -26 -4 3 -13 -9 -20 -25 -7 -17 -17 -30 -22 -30
-5 0 -6 -4 -3 -10 3 -5 2 -10 -2 -10 -11 0 -76 -109 -76 -127 0 -7 -3 -13 -7
-13 -4 0 -22 -30 -39 -67 -18 -38 -37 -76 -42 -87 -7 -11 -7 -22 -1 -28 10
-10 48 78 43 101 -1 7 2 10 8 6 7 -4 8 0 4 11 -4 11 -3 15 4 11 10 -6 38 47
34 66 0 4 4 7 9 7 5 0 9 3 7 8 -1 4 8 18 20 31 12 13 20 28 17 33 -3 4 -1 8 4
8 4 0 16 16 25 35 9 19 24 42 32 52 29 33 95 121 95 127 0 25 332 348 345 335
1 -2 15 -73 29 -158 15 -85 31 -172 37 -195 5 -22 11 -50 13 -61 22 -130 78
-344 136 -519 28 -83 54 -153 60 -156 5 -3 11 -18 14 -34 5 -30 13 -42 21 -35
6 6 -58 173 -68 177 -4 2 -5 7 -2 12 4 6 -13 65 -41 140 -3 8 -5 16 -5 17 0
10 -42 149 -47 157 -4 6 -7 18 -8 26 -1 41 -17 109 -25 105 -4 -3 -8 7 -7 22
2 35 -32 223 -41 223 -3 0 -6 17 -7 38 0 40 -22 177 -32 202 -5 14 -11 49 -8
50 0 1 30 3 66 6 73 6 263 62 254 75 -5 8 17 14 39 10 4 0 7 4 7 9 0 6 7 10
16 10 8 0 12 5 9 10 -3 6 3 10 14 10 12 0 21 5 21 11 0 5 5 7 10 4 6 -3 10 -2
10 4 0 5 13 18 29 27 17 10 28 21 25 26 -3 4 1 8 9 8 14 0 81 67 85 85 2 6 12
20 22 33 22 24 24 32 12 32 -4 0 -15 -12 -24 -27 -34 -57 -137 -150 -218 -199
-87 -52 -210 -100 -244 -95 -10 1 -16 -1 -13 -6 3 -4 -21 -6 -54 -5 l-59 4 18
23 c9 13 21 20 26 17 5 -3 6 0 1 7 -5 9 -14 6 -32 -11 l-26 -23 7 37 c4 20 17
56 30 80 12 23 21 49 18 57 -3 9 0 11 8 6 9 -5 11 -4 6 3 -4 7 -3 12 3 12 5 0
13 9 16 20 3 11 12 26 19 32 30 32 66 86 66 101 0 10 4 16 9 14 5 -1 10 1 10
5 3 14 116 120 142 134 15 7 29 20 32 29 4 8 13 15 21 15 9 0 30 9 48 21 l33
21 -30 -7 c-37 -8 -129 -68 -150 -98 -8 -12 -15 -18 -15 -13 0 5 -9 1 -20 -9
-11 -10 -18 -20 -16 -24 4 -6 -18 -30 -31 -33 -14 -4 -53 -55 -46 -62 3 -3 1
-6 -6 -6 -7 0 -9 -4 -6 -10 3 -5 1 -10 -4 -10 -13 0 -99 -132 -114 -175 -6
-16 -14 -33 -19 -36 -6 -3 -10 -10 -10 -15 0 -5 -4 -18 -8 -29 -7 -18 -9 -16
-23 16 -8 20 -18 45 -21 57 -4 12 -12 22 -17 22 -6 0 -7 5 -4 10 3 6 1 10 -5
10 -6 0 -8 5 -4 12 4 7 3 8 -4 4 -12 -7 0 -44 22 -74 5 -8 11 -21 13 -30 1
-10 5 -33 9 -52 l7 -34 -29 24 c-57 49 -76 66 -112 99 -20 19 -75 68 -122 108
-47 41 -88 80 -92 87 -8 14 -18 59 -22 96 -9 82 -19 131 -28 136 -12 8 -2
-117 10 -126 10 -8 15 -70 5 -70 -8 0 -80 61 -172 147 -25 24 -52 43 -59 43
-7 0 -10 5 -7 10 4 6 3 9 -2 8 -4 -2 -25 14 -45 35 -21 20 -40 37 -43 37 -3 0
-23 18 -46 40 -23 22 -45 37 -50 34 -5 -3 -9 0 -9 5 0 6 -5 11 -12 11 -6 0 1
-13 16 -29z m1406 -485 c0 -2 -8 -10 -17 -17 -16 -13 -17 -12 -4 4 13 16 21
21 21 13z"/>
<path d="M13760 22345 c0 -28 15 -50 24 -36 4 6 2 11 -4 11 -6 0 -9 4 -6 8 2
4 1 14 -5 22 -7 12 -9 11 -9 -5z"/>
<path d="M14266 22353 c-8 -8 55 -54 65 -47 5 3 9 0 9 -6 0 -14 96 -110 110
-110 6 0 9 -4 5 -9 -3 -5 10 -25 29 -45 18 -20 31 -36 29 -36 -5 0 37 -62 48
-70 3 -3 13 -19 22 -37 9 -17 22 -37 30 -45 7 -7 19 -28 26 -45 7 -18 17 -30
22 -27 10 6 -36 92 -59 112 -9 6 -13 12 -9 12 4 0 -5 18 -19 40 -15 22 -31 40
-35 40 -5 0 -9 6 -9 13 0 7 -15 28 -32 46 -18 19 -33 37 -33 41 0 12 -127 140
-135 135 -3 -2 -18 7 -32 20 -14 13 -29 21 -32 18z"/>
<path d="M13786 22291 c-4 -6 2 -18 13 -27 10 -9 17 -22 15 -28 -3 -7 4 -21
13 -31 10 -11 24 -32 30 -47 7 -16 17 -28 23 -28 6 0 8 -4 5 -10 -3 -5 -1 -10
5 -10 6 0 8 -5 4 -12 -4 -7 -3 -8 4 -4 7 4 12 1 12 -8 0 -9 12 -30 28 -47 82
-95 136 -147 145 -142 7 4 8 -1 3 -13 -4 -10 -4 -16 -1 -12 4 3 15 -1 25 -10
51 -48 70 -61 126 -94 61 -35 91 -48 108 -47 5 0 12 -5 16 -11 5 -8 10 -9 14
-2 3 6 -14 17 -39 25 -24 9 -60 27 -78 41 -19 14 -37 23 -40 19 -4 -3 -7 -2
-7 4 0 6 -13 19 -29 30 -34 22 -145 118 -177 153 -41 46 -132 178 -169 247
-45 81 -41 77 -49 64z"/>
<path d="M15362 22209 c-28 -23 -49 -46 -46 -51 4 -5 13 0 21 12 8 12 26 25
38 30 20 8 55 50 42 50 -3 0 -27 -19 -55 -41z"/>
<path d="M15284 22146 c-3 -7 -35 -38 -72 -67 -93 -75 -117 -97 -111 -104 3
-3 18 4 33 16 23 18 40 21 121 21 52 1 92 4 90 9 -3 4 -37 7 -75 6 -39 -1 -70
2 -70 7 0 4 11 21 25 38 14 16 25 26 25 22 0 -4 9 3 20 16 11 13 20 27 20 32
0 5 5 6 12 2 7 -4 8 -3 4 4 -9 16 -15 15 -22 -2z"/>
<path d="M15066 22094 c-3 -9 -3 -20 0 -25 3 -6 1 -16 -6 -24 -6 -8 -10 -22
-9 -32 1 -10 -1 -26 -6 -36 -4 -9 -5 -26 -2 -37 3 -11 2 -18 -2 -15 -4 2 -24
-13 -43 -33 -20 -20 -68 -64 -107 -97 -39 -33 -71 -64 -71 -69 0 -4 16 6 35
23 20 17 40 31 45 31 6 0 10 7 10 15 0 12 17 15 95 15 57 0 95 4 95 10 0 6
-30 9 -75 7 l-75 -2 35 33 c19 19 35 39 35 44 0 5 4 7 9 4 11 -7 43 28 34 38
-4 4 0 4 9 1 9 -4 19 -1 23 5 3 6 3 10 -2 9 -4 -1 -16 -1 -27 0 -14 1 -16 4
-7 14 6 8 12 36 15 64 2 28 7 56 10 62 4 6 3 11 -2 11 -6 0 -13 -7 -16 -16z"/>
<path d="M14276 21861 c-3 -5 30 -9 74 -10 49 -1 80 2 80 9 0 12 -146 14 -154
1z"/>
<path d="M14056 20738 c-13 -32 -14 -43 -5 -52 9 -8 10 -8 5 1 -3 6 -2 14 3
18 6 3 7 13 4 22 -5 12 -3 14 7 8 10 -6 12 -4 7 8 -3 9 -1 17 6 20 8 2 8 5 0
10 -7 4 -18 -10 -27 -35z"/>
<path d="M14012 20614 c-11 -38 -30 -102 -42 -142 -11 -40 -18 -77 -15 -83 4
-5 2 -15 -3 -22 -5 -7 -17 -61 -27 -122 -26 -162 -26 -439 1 -623 l7 -44 -48
36 c-33 26 -53 35 -67 30 -13 -4 -18 -2 -14 4 9 15 -54 33 -106 31 -66 -2
-108 -10 -102 -20 3 -5 -2 -6 -10 -3 -16 6 -88 -28 -119 -57 -12 -10 -25 -19
-30 -19 -5 0 -6 -7 -3 -16 3 -8 2 -13 -3 -9 -15 8 -70 -68 -98 -137 -37 -88
-38 -232 -3 -328 28 -76 86 -180 101 -180 6 0 8 -4 5 -8 -3 -5 8 -22 24 -37
17 -16 30 -25 30 -20 0 4 19 -11 42 -34 52 -51 124 -95 140 -85 6 4 8 3 5 -3
-4 -6 7 -13 25 -17 17 -3 39 -12 47 -20 33 -27 115 -41 248 -41 92 0 136 4
144 13 7 6 21 12 31 12 24 0 137 56 165 83 12 11 20 24 16 30 -3 6 -1 7 5 3
19 -12 146 109 137 131 -2 7 1 12 7 10 6 -1 16 7 22 18 6 11 19 32 29 47 11
15 16 32 12 38 -4 6 -1 9 7 8 7 -2 12 5 12 15 -1 9 3 17 8 17 6 0 7 7 4 16 -3
8 -2 12 4 9 14 -8 50 121 52 185 3 112 -16 191 -42 175 -3 -2 -6 5 -6 15 0 10
5 16 10 13 23 -15 -49 82 -89 119 -31 28 -52 37 -39 16 4 -7 3 -8 -5 -4 -6 4
-8 12 -5 18 5 8 1 9 -10 5 -11 -4 -15 -3 -11 4 4 6 -2 13 -14 16 -12 3 -21 9
-21 14 0 8 -63 28 -105 34 -11 1 -38 6 -60 9 -30 6 -36 5 -25 -3 11 -8 7 -9
-18 -5 -49 10 -152 -44 -196 -102 -19 -25 -37 -51 -39 -57 -7 -21 -16 -3 -27
54 -31 158 -33 464 -5 639 10 63 19 127 19 143 1 15 5 27 9 27 4 0 7 6 6 13
-1 6 0 19 3 27 31 82 65 217 58 224 -5 5 -17 -21 -28 -60z m-541 -1741 c13
-16 12 -17 -3 -4 -17 13 -22 21 -14 21 2 0 10 -8 17 -17z"/>
<path d="M15042 20443 c2 -5 10 -25 18 -45 8 -21 17 -38 22 -38 4 0 5 -7 2
-15 -4 -8 -1 -15 6 -15 6 0 9 -3 6 -8 -6 -10 69 -153 77 -145 4 3 7 -1 7 -10
0 -21 60 -137 72 -137 4 0 7 -3 6 -7 -4 -11 35 -73 45 -73 4 0 5 -4 2 -10 -3
-5 -1 -10 5 -10 6 0 9 -4 5 -9 -3 -5 4 -16 15 -24 11 -7 17 -17 13 -20 -3 -4
0 -7 7 -7 7 0 11 -3 8 -6 -7 -6 119 -185 139 -197 7 -4 13 -13 13 -19 0 -6 9
-19 20 -28 13 -12 17 -21 10 -25 -5 -3 -17 1 -26 9 -24 25 -53 38 -66 30 -6
-4 -8 -3 -5 3 9 15 -62 33 -129 33 -37 0 -75 -8 -103 -20 -24 -11 -49 -20 -56
-20 -19 0 -75 -49 -72 -63 1 -7 -4 -11 -10 -10 -13 3 -82 -83 -83 -102 0 -5
-7 -23 -15 -39 -8 -15 -13 -32 -10 -36 3 -5 0 -10 -6 -12 -8 -3 -12 -34 -12
-90 0 -98 30 -210 66 -249 12 -13 21 -25 19 -26 -7 -8 32 -64 58 -83 16 -12
30 -29 30 -37 0 -9 3 -13 6 -10 4 3 15 -5 26 -18 22 -29 194 -117 258 -133 25
-6 57 -9 70 -6 18 4 21 3 11 -4 -10 -7 7 -12 60 -16 66 -6 134 0 209 18 14 3
40 9 57 12 19 4 30 11 26 17 -3 6 -1 7 5 3 16 -10 54 12 46 26 -4 6 -3 8 4 4
6 -3 21 -2 34 3 31 12 104 79 100 92 -1 6 1 8 5 6 21 -13 70 53 57 76 -5 7 0
6 12 -3 10 -8 16 -10 12 -6 -4 5 5 25 21 45 63 81 121 234 136 361 9 81 -23
260 -47 260 -4 0 -8 7 -8 15 0 36 -145 158 -197 167 -10 2 -21 7 -24 12 -4 5
-24 10 -45 12 -22 2 -53 7 -71 10 -17 3 -55 1 -84 -5 -59 -13 -141 -50 -134
-61 3 -4 -4 -10 -15 -13 -11 -3 -24 -17 -30 -31 -5 -14 -12 -26 -15 -26 -4 0
-3 6 0 13 4 6 -1 3 -9 -8 -9 -11 -14 -25 -11 -33 2 -7 1 -10 -4 -7 -5 3 -12
-4 -16 -15 -6 -20 -25 -28 -25 -11 0 5 -15 26 -34 45 -18 20 -31 36 -27 36 3
0 -3 7 -13 15 -11 8 -17 15 -13 15 4 0 -2 10 -13 23 -42 47 -48 56 -42 61 3 3
0 6 -6 6 -7 0 -19 18 -28 40 -9 23 -19 38 -22 35 -3 -2 -13 12 -23 33 -10 20
-23 44 -29 52 -13 21 -91 157 -115 203 -11 20 -24 37 -28 37 -5 0 -7 6 -4 14
3 7 -2 26 -12 42 -9 16 -30 59 -46 97 -15 37 -32 67 -37 67 -5 0 -8 -3 -6 -7z
m36 -1485 c-2 -7 3 -12 10 -10 8 1 11 -2 7 -8 -5 -8 -11 -8 -21 1 -7 6 -11 15
-8 20 8 13 14 11 12 -3z"/>
<path d="M10217 17990 c-125 -20 -249 -105 -297 -204 -33 -70 -46 -165 -31
-243 30 -163 84 -215 454 -434 183 -108 269 -181 303 -254 44 -94 23 -203 -49
-261 -144 -114 -417 -88 -547 52 -41 45 -90 138 -104 199 -22 93 -27 105 -46
105 -19 0 -20 -7 -20 -127 0 -71 5 -145 11 -166 22 -81 133 -157 290 -198 120
-32 296 -32 395 -1 179 56 284 198 284 386 0 186 -56 246 -436 472 -302 179
-363 240 -364 362 0 65 17 107 61 151 58 57 111 76 215 75 222 -2 357 -114
412 -342 15 -62 20 -72 37 -70 18 3 20 12 23 107 5 184 -23 248 -138 314 -107
61 -320 98 -453 77z"/>
<path d="M15704 17986 c-132 -30 -241 -112 -287 -214 -28 -64 -35 -199 -14
-273 22 -74 68 -140 134 -193 31 -24 151 -101 268 -170 116 -70 235 -148 264
-173 69 -60 101 -124 101 -202 0 -73 -12 -106 -53 -149 -70 -74 -177 -102
-314 -84 -196 26 -309 135 -359 347 -14 59 -21 75 -36 75 -17 0 -18 -12 -18
-147 0 -171 5 -185 89 -252 111 -87 338 -137 516 -112 160 22 296 120 346 249
17 44 22 79 23 152 1 195 -50 249 -475 500 -186 110 -265 170 -296 225 -68
120 -20 258 110 316 41 18 69 23 137 23 235 -1 365 -119 424 -386 4 -19 13
-28 26 -28 19 0 20 7 20 136 0 155 -8 182 -71 238 -21 20 -61 47 -90 61 -116
59 -326 88 -445 61z"/>
<path d="M11986 17952 c-15 -25 6 -42 53 -42 59 0 107 -29 129 -78 15 -33 17
-103 20 -699 l3 -663 57 0 c57 1 57 1 92 50 32 45 60 64 60 41 0 -17 107 -80
164 -97 81 -23 212 -16 283 15 160 70 265 306 250 566 -14 234 -104 403 -255
473 -52 25 -67 27 -177 27 -118 -1 -140 -5 -256 -50 -15 -6 -17 12 -21 167 -4
154 -6 178 -26 215 -34 66 -64 76 -228 81 -90 3 -144 0 -148 -6z m697 -503
c126 -35 198 -196 199 -444 0 -151 -17 -245 -60 -331 -48 -95 -106 -134 -200
-134 -76 0 -135 25 -186 80 l-46 49 0 365 0 364 33 12 c107 41 137 49 177 50
25 0 62 -5 83 -11z"/>
<path d="M11330 17541 c-91 -17 -131 -33 -167 -64 -46 -40 -63 -82 -63 -152
l0 -55 48 0 48 0 18 50 c35 98 130 149 258 137 69 -6 125 -38 156 -90 28 -44
52 -147 52 -223 l0 -61 -118 -6 c-272 -15 -429 -75 -492 -187 -22 -39 -25 -57
-25 -135 1 -68 5 -99 19 -125 37 -70 77 -109 144 -142 62 -31 73 -33 172 -33
125 0 180 16 258 75 29 22 54 40 55 40 2 0 20 -23 41 -50 l39 -51 56 3 56 3
-1 370 c-1 403 -6 446 -61 546 -30 56 -70 89 -150 126 -49 23 -72 27 -177 29
-67 2 -141 -1 -166 -5z m350 -710 l0 -160 -48 -49 c-92 -94 -228 -98 -319 -10
-39 38 -56 84 -56 154 0 135 136 219 361 223 l62 1 0 -159z"/>
<path d="M13733 17531 c-56 -19 -132 -67 -140 -88 -8 -21 -27 -15 -45 16 -29
52 -68 65 -212 69 -96 3 -131 1 -136 -9 -15 -23 1 -37 50 -41 59 -6 77 -19
104 -78 20 -43 21 -63 24 -485 l3 -440 99 -3 100 -3 0 419 c0 481 -6 448 97
498 45 23 70 28 123 28 65 -1 149 -28 164 -53 5 -8 22 -1 52 21 24 17 44 34
44 38 0 23 -74 99 -110 114 -53 21 -152 20 -217 -3z"/>
<path d="M14541 17534 c-129 -35 -237 -125 -294 -246 -48 -100 -62 -165 -62
-288 0 -122 14 -188 61 -287 60 -126 182 -225 312 -252 291 -61 536 99 599
392 18 86 13 266 -11 339 -58 183 -189 312 -354 347 -71 15 -185 13 -251 -5z
m225 -95 c120 -58 188 -216 188 -439 0 -139 -16 -214 -64 -310 -53 -105 -134
-156 -236 -148 -98 8 -177 88 -225 228 -31 92 -39 301 -14 403 24 99 59 169
110 220 68 68 160 86 241 46z"/>
<path d="M16855 17544 c-179 -25 -255 -93 -255 -231 l0 -43 49 0 c48 0 48 0
65 44 36 94 97 136 207 144 164 12 245 -77 256 -280 l6 -98 -64 0 c-96 0 -234
-18 -321 -41 -150 -41 -228 -110 -249 -224 -12 -63 0 -155 26 -205 23 -44 88
-102 145 -129 49 -23 66 -26 165 -25 127 0 194 20 262 79 23 19 43 35 46 35 3
0 22 -22 43 -50 l38 -50 59 0 59 0 -5 383 c-3 322 -7 391 -21 442 -34 118 -94
186 -199 228 -40 15 -79 21 -167 23 -63 1 -128 0 -145 -2z m327 -711 c1 -151
1 -152 -26 -188 -43 -56 -96 -86 -164 -92 -138 -13 -231 71 -232 208 0 137
147 232 353 226 l68 -2 1 -152z"/>
<path d="M18078 17527 c-37 -13 -86 -38 -107 -55 -22 -18 -42 -32 -46 -32 -3
0 -19 15 -35 34 -40 45 -89 56 -245 56 -125 0 -126 0 -123 -22 3 -20 10 -24
66 -29 69 -7 94 -23 120 -79 14 -30 17 -97 20 -482 l4 -448 99 0 99 0 0 434 0
435 43 34 c61 50 103 69 166 74 110 10 214 -62 245 -168 13 -44 16 -118 16
-431 l0 -378 100 0 100 0 0 385 c0 477 -6 513 -102 602 -63 57 -141 85 -258
90 -81 3 -105 0 -162 -20z"/>
<path d="M19223 17540 c-114 -23 -246 -125 -306 -237 -88 -164 -89 -431 -3
-601 34 -66 112 -150 177 -189 138 -82 346 -84 493 -5 178 96 281 337 247 578
-41 295 -227 467 -500 463 -36 -1 -85 -5 -108 -9z m202 -99 c117 -53 184 -192
192 -402 10 -236 -53 -406 -176 -472 -90 -49 -190 -30 -263 51 -46 51 -60 78
-89 172 -31 98 -34 299 -6 400 35 129 99 220 181 256 44 19 114 17 161 -5z"/>
<path d="M10433 15760 l-52 -5 -56 -84 c-30 -47 -55 -88 -55 -93 0 -4 17 -8
38 -8 34 0 45 8 120 86 78 81 97 112 70 110 -7 -1 -36 -3 -65 -6z"/>
<path d="M5728 15635 c-11 -12 1 -25 22 -25 38 0 69 -23 84 -62 13 -32 16 -94
16 -378 l0 -340 25 0 26 0 -3 315 c-2 173 -1 315 2 315 3 0 120 -144 260 -320
140 -175 260 -319 266 -319 7 -1 13 5 15 12 2 6 3 191 1 410 -2 371 -4 398
-20 395 -15 -3 -17 -29 -22 -301 l-5 -298 -26 28 c-14 15 -116 141 -226 278
-143 178 -211 255 -236 267 -38 18 -168 34 -179 23z"/>
<path d="M13120 15626 c0 -11 9 -16 26 -16 40 0 62 -17 74 -58 6 -22 10 -174
10 -381 l0 -343 183 5 c193 5 252 16 317 59 51 35 73 81 74 152 1 106 -54 171
-163 192 l-34 7 39 20 c82 41 114 88 114 167 0 64 -28 121 -73 149 -65 40
-141 52 -359 58 -189 5 -208 4 -208 -11z m430 -63 c72 -37 95 -70 95 -137 -1
-103 -70 -155 -217 -164 l-88 -5 0 161 c0 119 3 162 13 165 6 3 42 6 78 6 53
1 76 -4 119 -26z m13 -364 c22 -6 55 -26 75 -44 36 -33 37 -35 37 -109 0 -69
-2 -77 -30 -106 -16 -17 -46 -38 -65 -47 -38 -16 -168 -23 -212 -10 l-28 7 0
160 0 160 93 0 c50 0 109 -5 130 -11z"/>
<path d="M19430 15277 c0 -228 4 -375 10 -394 15 -40 46 -53 135 -53 84 0 97
12 31 29 -24 6 -48 19 -52 28 -5 10 -11 182 -14 383 l-5 365 -52 3 -53 3 0
-364z"/>
<path d="M23680 15626 c0 -11 9 -16 28 -16 45 0 64 -21 73 -81 4 -30 8 -199 8
-377 l1 -323 51 3 52 3 -2 368 c-2 237 -6 377 -13 392 -14 31 -28 36 -120 42
-68 5 -78 4 -78 -11z"/>
<path d="M8587 15592 c-10 -10 -17 -28 -17 -39 0 -33 38 -73 68 -73 49 0 68
30 51 80 -18 50 -71 66 -102 32z"/>
<path d="M9676 15594 c-39 -39 -4 -114 54 -114 52 0 68 63 25 105 -28 29 -57
32 -79 9z"/>
<path d="M14056 15594 c-39 -38 -4 -114 52 -114 35 0 52 16 52 51 0 60 -67
101 -104 63z"/>
<path d="M7545 15560 c-25 -26 -31 -42 -35 -93 l-5 -62 -42 -3 c-35 -3 -43 -7
-43 -23 0 -13 7 -20 23 -21 12 0 27 -2 32 -3 6 -2 16 -3 23 -4 9 -1 12 -52 12
-218 0 -240 3 -252 59 -290 25 -17 48 -23 90 -23 65 0 141 30 141 56 0 12 -5
14 -17 8 -10 -4 -41 -9 -69 -12 -46 -3 -53 -1 -73 24 -20 25 -21 37 -21 243
l0 217 23 0 c102 1 117 4 117 24 0 18 -7 20 -70 20 l-69 0 -3 93 c-3 84 -5 92
-23 95 -12 2 -32 -9 -50 -28z"/>
<path d="M17282 15551 c-27 -34 -32 -48 -32 -95 l0 -56 -40 0 c-35 0 -40 -3
-40 -23 0 -18 5 -22 28 -21 53 2 52 7 52 -215 0 -240 9 -274 75 -305 46 -22
132 -18 188 8 35 17 47 46 16 37 -38 -9 -90 -13 -113 -7 -50 12 -57 45 -54
273 l3 208 70 0 c65 0 70 2 73 23 3 21 0 22 -72 22 l-76 0 0 95 c0 93 -1 95
-23 95 -15 0 -35 -14 -55 -39z"/>
<path d="M20675 15560 c-25 -26 -31 -42 -35 -93 l-5 -62 -43 -3 c-38 -3 -43
-6 -40 -25 2 -18 9 -22 43 -22 l40 0 5 -232 c5 -253 6 -255 72 -289 60 -31
218 -1 218 42 0 12 -5 14 -17 8 -10 -4 -41 -9 -69 -12 -46 -3 -53 -1 -73 24
-20 25 -21 37 -21 239 l0 212 38 7 c20 3 52 6 70 6 25 0 32 4 32 20 0 18 -7
20 -70 20 l-69 0 -3 93 c-3 84 -5 92 -23 95 -12 2 -32 -9 -50 -28z"/>
<path d="M10275 15490 c-22 -5 -52 -13 -67 -19 -46 -17 -114 -88 -139 -144
-21 -45 -24 -68 -24 -167 0 -103 3 -121 26 -170 50 -106 129 -160 244 -168
212 -13 335 125 323 362 -8 145 -65 239 -172 287 -51 21 -138 30 -191 19z
m160 -109 c37 -21 72 -71 86 -125 18 -66 7 -194 -22 -251 -37 -74 -65 -90
-159 -90 -63 0 -84 4 -107 21 -100 72 -113 332 -21 421 55 53 155 64 223 24z"/>
<path d="M8235 15415 c-5 -2 -22 -6 -37 -9 -14 -3 -40 -17 -56 -31 l-31 -26
-25 26 c-22 22 -33 25 -101 25 -80 0 -96 -10 -43 -25 54 -16 58 -35 58 -302
l0 -243 55 0 55 0 0 230 0 229 37 26 c44 29 111 34 157 10 27 -15 31 -14 49 3
16 17 17 22 6 40 -19 31 -92 58 -124 47z"/>
<path d="M9157 15409 c-142 -22 -228 -152 -215 -324 10 -120 83 -225 176 -253
69 -21 152 -15 210 14 60 30 112 88 94 106 -9 9 -17 4 -33 -16 -31 -40 -90
-66 -150 -66 -126 0 -185 90 -177 272 4 97 33 169 81 198 95 58 217 15 242
-86 15 -57 31 -43 27 24 -4 67 -22 99 -65 117 -42 17 -131 23 -190 14z"/>
<path d="M11118 15406 c-25 -7 -58 -20 -72 -30 -26 -16 -28 -16 -53 4 -21 16
-40 20 -109 20 -49 0 -84 -4 -84 -10 0 -5 13 -10 29 -10 16 0 39 -9 52 -19 24
-19 24 -20 27 -275 l3 -256 54 0 55 0 0 234 0 234 30 26 c79 66 192 33 220
-65 6 -18 10 -123 10 -231 l0 -198 55 0 55 0 0 195 c0 207 -9 279 -42 320 -44
56 -147 84 -230 61z"/>
<path d="M11960 15408 c0 -9 16 -20 38 -26 21 -7 48 -22 60 -35 12 -13 61
-117 108 -233 139 -337 126 -290 98 -359 -31 -75 -67 -113 -121 -127 -59 -14
-57 -38 2 -38 75 0 127 38 162 120 8 19 66 175 128 345 62 171 116 318 120
328 7 16 3 18 -25 15 l-33 -3 -71 -197 c-39 -108 -74 -199 -77 -203 -3 -3 -36
68 -73 158 -79 194 -95 221 -138 243 -45 24 -178 32 -178 12z"/>
<path d="M14601 15409 c-118 -23 -191 -132 -191 -288 0 -111 21 -173 79 -231
67 -67 154 -87 256 -59 50 14 144 104 127 121 -8 8 -23 1 -56 -30 -52 -48 -78
-56 -147 -50 -79 8 -131 71 -145 177 l-7 51 187 0 186 0 0 60 c0 76 -24 146
-63 187 -50 53 -144 78 -226 62z m95 -54 c41 -17 68 -69 79 -152 l7 -53 -132
0 -133 0 7 46 c9 70 40 131 78 154 39 24 48 24 94 5z"/>
<path d="M15358 15406 c-25 -7 -58 -20 -72 -30 -26 -16 -28 -16 -53 4 -21 16
-40 20 -109 20 -49 0 -84 -4 -84 -10 0 -5 13 -10 29 -10 16 0 39 -9 52 -19 24
-19 24 -20 27 -275 l3 -256 54 0 55 0 0 234 0 234 30 26 c79 66 192 33 220
-65 6 -18 10 -123 10 -231 l0 -198 55 0 55 0 0 195 c0 207 -9 279 -42 320 -44
56 -147 84 -230 61z"/>
<path d="M16065 15410 c-116 -19 -190 -115 -202 -260 -7 -84 14 -175 55 -235
72 -104 243 -127 350 -48 44 33 68 71 54 85 -8 8 -18 2 -36 -19 -53 -63 -158
-83 -224 -43 -41 25 -82 108 -82 168 l0 42 185 0 185 0 0 43 c0 63 -27 156
-57 195 -43 56 -140 87 -228 72z m117 -79 c30 -33 48 -87 48 -143 l0 -38 -126
0 -127 0 6 55 c14 140 123 208 199 126z"/>
<path d="M16703 15410 c-95 -19 -143 -69 -143 -150 0 -83 43 -126 183 -184
127 -53 163 -94 135 -153 -20 -42 -53 -54 -135 -51 -82 4 -117 23 -145 78 -30
58 -38 59 -38 4 0 -98 48 -128 200 -129 87 0 112 3 145 21 52 27 85 76 85 126
0 79 -42 124 -169 179 -136 59 -175 100 -151 158 16 39 53 56 119 56 72 -1
115 -26 142 -82 11 -24 25 -43 30 -43 5 0 9 20 9 44 0 56 -35 102 -88 115 -60
15 -134 19 -179 11z"/>
<path d="M17870 15410 c-100 -13 -140 -48 -140 -121 0 -24 4 -29 25 -29 19 0
28 8 39 34 19 46 58 69 115 70 83 2 121 -41 135 -151 l7 -53 -54 0 c-125 0
-245 -41 -278 -94 -42 -68 -18 -167 53 -219 55 -41 182 -33 252 16 l29 20 19
-26 c14 -20 28 -27 52 -27 l33 0 2 153 c2 182 -10 293 -36 344 -35 67 -133 99
-253 83z m180 -383 c0 -81 -1 -84 -32 -114 -40 -37 -66 -46 -112 -37 -43 8
-82 44 -90 85 -6 34 12 86 37 108 28 23 89 40 145 41 l52 0 0 -83z"/>
<path d="M18665 15415 c-5 -2 -22 -6 -37 -9 -14 -3 -40 -17 -56 -31 l-31 -26
-25 26 c-23 23 -33 25 -106 25 -47 0 -80 -4 -80 -10 0 -5 11 -10 24 -10 13 0
34 -9 47 -19 24 -19 24 -20 27 -275 l3 -256 54 0 55 0 2 232 3 232 34 23 c41
28 107 31 153 7 29 -15 32 -15 50 4 19 19 19 21 3 45 -9 15 -24 28 -33 31 -32
9 -77 15 -87 11z"/>
<path d="M20078 15406 c-25 -7 -58 -20 -72 -30 -26 -16 -28 -16 -53 4 -21 16
-40 20 -109 20 -49 0 -84 -4 -84 -10 0 -5 13 -10 29 -10 16 0 39 -9 52 -19 24
-19 24 -20 27 -275 l3 -256 54 0 55 0 0 234 0 234 30 26 c79 66 192 33 220
-65 6 -18 10 -123 10 -231 l0 -198 55 0 55 0 0 195 c0 207 -9 279 -42 320 -44
56 -147 84 -230 61z"/>
<path d="M21290 15410 c-113 -22 -186 -120 -197 -265 -11 -146 52 -269 160
-310 59 -22 157 -17 212 11 51 26 103 90 87 106 -8 8 -17 3 -36 -19 -53 -63
-158 -83 -224 -43 -41 25 -82 108 -82 168 l0 42 185 0 185 0 0 43 c0 63 -27
156 -57 195 -42 56 -148 89 -233 72z m122 -79 c30 -33 48 -87 48 -143 l0 -38
-126 0 -127 0 6 55 c14 140 123 208 199 126z"/>
<path d="M21963 15410 c-96 -14 -151 -64 -160 -143 -8 -71 4 -113 46 -157 36
-38 37 -40 19 -56 -25 -23 -23 -72 3 -101 21 -22 21 -23 3 -29 -58 -22 -114
-93 -114 -146 0 -130 101 -194 293 -186 90 3 108 7 156 33 80 44 107 113 81
207 -20 72 -121 128 -231 128 -70 0 -146 19 -154 37 -11 32 19 45 123 53 124
10 179 33 210 89 41 72 21 179 -39 211 -26 14 -15 27 26 32 19 2 30 9 30 18 0
12 -21 15 -120 16 -66 1 -143 -2 -172 -6z m135 -56 c52 -36 69 -136 34 -204
-24 -50 -84 -70 -144 -50 -59 21 -80 63 -75 149 3 57 7 67 35 92 26 23 42 29
80 29 27 0 57 -7 70 -16z m21 -462 c92 -47 93 -190 2 -237 -45 -23 -148 -20
-189 5 -35 21 -62 72 -62 114 0 43 29 100 63 124 28 20 40 23 91 18 33 -4 76
-14 95 -24z"/>
<path d="M22738 15411 c-20 -4 -53 -20 -72 -34 l-35 -27 -25 25 c-22 22 -33
25 -101 25 -76 0 -100 -12 -45 -23 59 -12 65 -37 68 -282 1 -121 2 -230 2
-242 0 -21 5 -23 53 -23 l52 0 -3 202 c-1 112 0 217 3 235 11 62 118 95 188
58 23 -11 32 -12 48 -2 23 14 24 26 4 54 -13 18 -76 46 -95 42 -3 -1 -22 -5
-42 -8z"/>
<path d="M23230 15410 c-100 -13 -140 -48 -140 -121 0 -24 4 -29 25 -29 19 0
28 8 39 34 19 46 58 69 115 70 83 2 121 -41 135 -151 l7 -53 -54 0 c-125 0
-245 -41 -278 -94 -42 -68 -18 -167 53 -219 55 -41 182 -33 252 16 l29 20 19
-26 c14 -20 28 -27 52 -27 l33 0 2 153 c2 182 -10 293 -36 344 -35 67 -133 99
-253 83z m180 -383 c0 -81 -1 -84 -32 -114 -40 -37 -66 -46 -112 -37 -43 8
-82 44 -90 85 -6 34 12 86 37 108 28 23 89 40 145 41 l52 0 0 -83z"/>
<path d="M6640 15390 c0 -5 9 -10 19 -10 10 0 29 -9 42 -19 23 -19 24 -25 29
-208 5 -175 7 -192 30 -238 32 -62 79 -88 170 -93 57 -3 72 0 122 26 l58 31
19 -25 c13 -16 29 -24 50 -24 l31 0 0 285 0 285 -55 0 -55 0 0 -235 0 -235
-39 -25 c-76 -51 -154 -37 -196 35 -18 31 -21 58 -25 228 -5 189 -6 194 -29
213 -18 15 -39 19 -97 19 -43 0 -74 -4 -74 -10z"/>
<path d="M8480 15390 c0 -5 14 -10 30 -10 19 0 40 -9 55 -25 l25 -24 0 -251 0
-250 55 0 56 0 -3 266 c-3 266 -3 266 -27 285 -19 15 -39 19 -107 19 -49 0
-84 -4 -84 -10z"/>
<path d="M9570 15391 c0 -5 18 -11 41 -15 64 -10 69 -32 69 -311 l0 -235 55 0
55 0 0 238 c0 246 -7 305 -40 322 -23 12 -180 13 -180 1z"/>
<path d="M13950 15391 c0 -5 18 -11 41 -15 64 -10 69 -32 69 -311 l0 -235 55
0 55 0 0 238 c0 246 -7 305 -40 322 -23 12 -180 13 -180 1z"/>
</g>
</svg>
